<?xml version="1.0" standalone="no"?>
<!DOCTYPE svg PUBLIC "-//W3C//DTD SVG 20010904//EN"
 "http://www.w3.org/TR/2001/REC-SVG-20010904/DTD/svg10.dtd">
<svg version="1.0" xmlns="http://www.w3.org/2000/svg"
 width="591.000000pt" height="591.000000pt" viewBox="0 0 591.000000 591.000000"
 preserveAspectRatio="xMidYMid meet">
<metadata>
Created by potrace 1.11, written by Peter Selinger 2001-2013
</metadata>
<g transform="translate(0.000000,591.000000) scale(0.100000,-0.100000)"
fill="#000000" stroke="none">
<path d="M0 2955 l0 -2955 2955 0 2955 0 0 2955 0 2955 -2955 0 -2955 0 0
-2955z m3145 1317 c117 -27 408 -157 431 -193 9 -15 -1 -11 -64 25 -220 124
-579 185 -838 141 -263 -44 -455 -132 -651 -297 -293 -248 -457 -600 -456
-983 0 -125 6 -175 39 -313 63 -262 243 -535 470 -708 l74 -57 27 24 c74 68
333 385 333 407 0 6 -21 63 -46 129 -25 65 -61 159 -79 208 -18 50 -72 194
-120 320 -86 227 -185 515 -185 540 0 30 -25 34 -84 14 -157 -53 -266 -175
-266 -297 0 -58 37 -165 81 -233 64 -98 260 -289 346 -338 10 -5 15 -12 12
-16 -17 -16 -189 99 -290 194 -201 187 -260 405 -155 570 48 73 149 144 262
181 44 15 64 27 64 38 0 13 2 14 9 4 7 -11 28 -11 122 2 128 18 276 21 364 6
33 -5 63 -6 68 -1 5 5 -1 40 -13 80 -31 106 -18 109 30 6 24 -49 44 -92 46
-94 1 -2 67 -20 146 -40 204 -53 214 -58 244 -128 23 -52 26 -68 22 -148 -5
-97 -38 -212 -97 -337 -17 -36 -31 -73 -31 -83 0 -29 83 -235 94 -235 6 1 33
38 60 83 27 45 91 146 143 225 51 78 93 146 93 150 0 4 -12 15 -27 24 l-28 17
40 -6 40 -5 60 94 c32 51 104 163 160 248 55 85 118 183 139 217 42 71 60 88
44 43 -5 -17 -8 -44 -5 -60 5 -25 -17 -63 -163 -283 -159 -238 -182 -277 -162
-277 28 0 305 -66 522 -125 96 -26 182 -48 190 -49 8 -1 28 -8 43 -14 16 -7
31 -12 34 -12 16 0 235 -72 231 -76 -3 -2 -58 8 -124 22 -65 14 -130 27 -144
28 -14 2 -32 5 -40 9 -8 3 -85 22 -170 43 -212 50 -400 100 -494 130 -43 14
-82 22 -86 17 -4 -4 -74 -107 -154 -228 -81 -121 -156 -232 -167 -246 l-21
-26 42 -124 c37 -113 89 -289 103 -348 11 -45 -19 -1 -53 79 -18 41 -45 102
-60 135 -15 33 -37 86 -50 118 -13 31 -28 57 -34 57 -6 0 -22 -16 -35 -35 -36
-53 -37 -34 -2 28 l31 55 -28 73 c-15 41 -34 95 -41 122 -8 26 -19 47 -26 47
-7 0 -28 -26 -45 -57 -48 -86 -164 -257 -238 -352 l-65 -83 38 -122 c44 -139
57 -192 45 -180 -8 8 -88 185 -103 227 -4 9 -10 17 -15 17 -5 0 -36 -30 -68
-67 -32 -38 -110 -123 -171 -190 -62 -67 -113 -124 -113 -127 0 -10 125 -74
204 -106 166 -65 298 -90 486 -90 280 0 490 61 735 214 57 35 58 36 25 6 -130
-115 -428 -231 -633 -246 -45 -3 -95 -7 -112 -9 -36 -5 -209 11 -285 26 -91
19 -225 66 -323 115 -50 25 -96 50 -102 55 -16 16 -35 10 -63 -19 -15 -15 -38
-36 -52 -47 l-25 -20 20 24 c11 13 33 37 50 54 l29 30 -26 21 c-14 11 -54 44
-88 71 -162 129 -318 353 -393 561 -55 152 -72 264 -71 459 0 196 11 268 64
427 90 269 273 511 505 668 170 115 369 192 565 221 98 14 356 3 455 -19z
m635 -2245 c0 -2 -10 -12 -22 -23 l-23 -19 19 23 c18 21 26 27 26 19z m-51
-49 c-2 -2 -17 -14 -34 -28 l-30 -25 24 28 c14 15 29 27 34 27 6 0 8 -1 6 -2z"/>
<path d="M2208 3570 c-48 -3 -92 -10 -99 -17 -8 -8 -4 -24 14 -59 28 -57 113
-267 152 -374 15 -41 42 -115 60 -165 19 -49 70 -189 115 -310 96 -264 97
-265 109 -265 11 0 217 307 287 428 46 81 47 85 35 120 -8 20 -52 136 -98 257
-47 121 -94 248 -106 283 -24 71 -24 71 -172 91 -115 15 -198 18 -297 11z"/>
<path d="M2736 3501 c-3 -5 8 -42 24 -82 16 -41 58 -155 94 -254 35 -99 68
-180 73 -179 23 2 111 228 134 343 15 80 19 77 -162 136 -147 48 -155 50 -163
36z"/>
</g>
</svg>
